<svg xmlns="http://www.w3.org/2000/svg" fill="none" viewBox="0 0 69 68" height="68" width="69">
<path fill="url(#paint0_linear)" d="M68.0359 35.4386C68.0359 44.0371 64.6201 52.2835 58.54 58.3635C52.46 64.4436 44.2136 67.8594 35.6151 67.8594C27.0166 67.8594 18.7702 64.4436 12.6902 58.3635C6.61009 52.2835 3.19434 44.0371 3.19434 35.4386L35.6151 35.4386H68.0359Z"></path>
<circle fill="url(#paint1_linear)" r="11.1553" cy="19.3378" cx="35.6151"></circle>
<path fill="black" d="M64.8415 32.4208C64.8415 41.0193 61.4258 49.2656 55.3457 55.3457C49.2656 61.4258 41.0193 64.8415 32.4208 64.8415C23.8222 64.8415 15.5759 61.4258 9.49582 55.3457C3.41575 49.2656 1.29834e-06 41.0193 0 32.4208L32.4208 32.4208H64.8415Z"></path>
<circle fill="black" r="11.1553" cy="16.32" cx="32.4207"></circle>
<defs>
<linearGradient gradientUnits="userSpaceOnUse" y2="51.4189" x2="60.8713" y1="51.649" x1="-2.22903" id="paint0_linear">
<stop stop-color="#B16CEA" offset="0.197917"></stop>
<stop stop-color="#FF5E69" offset="0.557292"></stop>
<stop stop-color="#FF8A56" offset="0.828125"></stop>
<stop stop-color="#FFA84B" offset="1"></stop>
</linearGradient>
<linearGradient gradientUnits="userSpaceOnUse" y2="14.776" x2="43.2067" y1="16.8223" x1="16.7678" id="paint1_linear">
<stop stop-color="#B16CEA" offset="0.197917"></stop>
<stop stop-color="#FF5E69" offset="0.557292"></stop>
<stop stop-color="#FF8A56" offset="0.828125"></stop>
<stop stop-color="#FFA84B" offset="1"></stop>
</linearGradient>
</defs>
</svg>
